<svg width="24" height="24" viewBox="0 0 24 24" fill="none" xmlns="http://www.w3.org/2000/svg">
<g clip-path="url(#clip0_167_645)">
<path d="M13.75 18.5H1.75C0.785 18.5 0 19.285 0 20.25V22.25C0 23.215 0.785 24 1.75 24H13.75C14.715 24 15.5 23.215 15.5 22.25V20.25C15.5 19.285 14.715 18.5 13.75 18.5ZM14 22.25C14 22.388 13.888 22.5 13.75 22.5H1.75C1.612 22.5 1.5 22.388 1.5 22.25V20.25C1.5 20.112 1.612 20 1.75 20H13.75C13.888 20 14 20.112 14 20.25V22.25Z" fill="white"/>
<path d="M15.341 9.448C15.829 8.855 16.237 8.25 16.455 7.69501C16.462 7.69501 16.469 7.697 16.475 7.697C16.921 7.697 17.368 7.527 17.707 7.187L18.409 6.48601C19.089 5.80601 19.089 4.70101 18.409 4.02101L14.899 0.511007C14.219 -0.168993 13.114 -0.168993 12.435 0.511007L11.733 1.21301C11.39 1.55601 11.221 2.00701 11.225 2.45801C10.894 2.59101 10.611 2.76801 10.455 2.86701C9.076 3.74401 7.241 5.58001 6.365 6.95901C6.266 7.11301 6.09 7.395 5.958 7.724C5.507 7.721 5.056 7.889 4.712 8.232L4.011 8.935C3.682 9.264 3.5 9.701 3.5 10.167C3.5 10.633 3.682 11.07 4.011 11.399L7.521 14.909C7.861 15.249 8.307 15.419 8.753 15.419C9.199 15.419 9.646 15.249 9.985 14.909L10.687 14.207C11.031 13.863 11.2 13.409 11.195 12.957C11.523 12.825 11.807 12.654 11.961 12.556C12.266 12.362 12.599 12.114 12.942 11.834C15.469 14.777 19.079 18.746 19.727 19.395C20.301 19.969 21.052 20.505 21.854 20.505C22.333 20.505 22.832 20.313 23.321 19.823C23.501 19.643 23.921 19.223 23.989 18.545C24.063 17.809 23.694 17.029 22.893 16.229C22.253 15.586 18.293 11.983 15.341 9.448V9.448ZM12.793 2.27301L13.495 1.57101C13.542 1.52401 13.604 1.50001 13.667 1.50001C13.729 1.50001 13.792 1.52401 13.839 1.57101L17.349 5.08101C17.444 5.17601 17.444 5.33001 17.349 5.42501L16.647 6.12601C16.552 6.22001 16.398 6.22001 16.303 6.12601L12.793 2.61601C12.699 2.52101 12.699 2.36801 12.793 2.27301V2.27301ZM9.626 13.146L8.924 13.848C8.829 13.941 8.675 13.941 8.581 13.848L5.071 10.338C5.009 10.276 5 10.204 5 10.167C5 10.13 5.009 10.058 5.071 9.995L5.773 9.293C5.82 9.246 5.883 9.222 5.945 9.222C6.007 9.222 6.07 9.246 6.117 9.293L9.627 12.803C9.721 12.897 9.721 13.052 9.626 13.146ZM10.555 11.61L7.309 8.364C7.575 7.274 10.774 4.07401 11.864 3.80801L15.11 7.054C14.847 8.138 11.644 11.345 10.555 11.61V11.61ZM22.262 18.763C22.041 18.985 21.738 19.283 20.788 18.334C20.227 17.773 16.662 13.866 14.057 10.83C14.102 10.786 14.285 10.606 14.331 10.559C17.377 13.172 21.277 16.733 21.833 17.288C22.469 17.924 22.509 18.273 22.497 18.394C22.485 18.53 22.388 18.637 22.262 18.763V18.763Z" fill="white"/>
</g>
<defs>
<clipPath id="clip0_167_645">
<rect width="24" height="24" fill="white"/>
</clipPath>
</defs>
</svg>
