<svg width="24" height="24" viewBox="0 0 24 24" fill="none" xmlns="http://www.w3.org/2000/svg">
<path d="M12 23C12.5304 23 13.0391 22.7893 13.4142 22.4142C13.7893 22.0391 14 21.5304 14 21H10C10 21.5304 10.2107 22.0391 10.5858 22.4142C10.9609 22.7893 11.4696 23 12 23Z" fill="#333333"/>
<path d="M20.9238 18.383C20.9995 18.2002 21.0193 17.9991 20.9806 17.8051C20.942 17.6111 20.8467 17.4329 20.7068 17.293L18.9998 15.586V10C18.9978 8.31816 18.3904 6.69324 17.2886 5.42253C16.1868 4.15182 14.6644 3.32026 12.9998 3.08V2C12.9998 1.73478 12.8944 1.48043 12.7069 1.29289C12.5194 1.10536 12.265 1 11.9998 1C11.7346 1 11.4802 1.10536 11.2927 1.29289C11.1051 1.48043 10.9998 1.73478 10.9998 2V3.08C9.33519 3.32026 7.81274 4.15182 6.71097 5.42253C5.60919 6.69324 5.00176 8.31816 4.99979 10V15.586L3.29279 17.293C3.15298 17.4329 3.05777 17.611 3.0192 17.805C2.98064 17.9989 3.00044 18.2 3.07611 18.3827C3.15178 18.5654 3.27992 18.7215 3.44433 18.8314C3.60874 18.9413 3.80204 19 3.99979 19H19.9998C20.1975 19.0001 20.3909 18.9415 20.5554 18.8316C20.7198 18.7218 20.848 18.5657 20.9238 18.383ZM6.41379 17L6.70679 16.707C6.89433 16.5195 6.99973 16.2652 6.99979 16V10C6.99979 8.67392 7.52657 7.40215 8.46425 6.46447C9.40193 5.52679 10.6737 5 11.9998 5C13.3259 5 14.5976 5.52679 15.5353 6.46447C16.473 7.40215 16.9998 8.67392 16.9998 10V16C16.9998 16.2652 17.1052 16.5195 17.2928 16.707L17.5858 17H6.41379Z" fill="#333333"/>
</svg>
