<svg width="78" height="78" viewBox="0 0 78 78" fill="none" xmlns="http://www.w3.org/2000/svg">
<path fill-rule="evenodd" clip-rule="evenodd" d="M39.0002 68.64C57.9546 68.64 73.3202 53.2744 73.3202 34.32C73.3202 15.3656 57.9546 0 39.0002 0C20.0458 0 4.68018 15.3656 4.68018 34.32C4.68018 43.243 8.08542 51.3706 13.6673 57.4743C14.3866 58.2608 14.8203 59.2751 14.8203 60.3409V73.1872C14.8203 76.1365 17.9033 78.0717 20.5593 76.7894L37.4156 68.6519C37.4254 68.6472 37.4252 68.6332 37.4153 68.6288C37.4024 68.623 37.407 68.6037 37.4211 68.6043C37.9445 68.628 38.4709 68.64 39.0002 68.64Z" fill="#CC561E"/>
<path fill-rule="evenodd" clip-rule="evenodd" d="M35.8696 36.5652C35.8696 38.222 37.2128 39.5652 38.8696 39.5652H39.1305C40.7874 39.5652 42.1305 38.222 42.1305 36.5652L42.1305 23.0869C42.1305 21.4301 40.7874 20.0869 39.1305 20.0869H38.8696C37.2128 20.0869 35.8696 21.4301 35.8696 23.0869V36.5652ZM39.0001 47.913C40.729 47.913 42.1305 46.5115 42.1305 44.7826C42.1305 43.0537 40.729 41.6521 39.0001 41.6521C37.2712 41.6521 35.8696 43.0537 35.8696 44.7826C35.8696 46.5115 37.2712 47.913 39.0001 47.913Z" fill="white"/>
</svg>
