<svg width="91" height="90" viewBox="0 0 91 90" fill="none" xmlns="http://www.w3.org/2000/svg">
<path d="M60.7476 28.8906C57.609 28.8027 54.4044 29.8341 51.7745 32.2655C49.133 34.7079 47.6059 38.1974 47.6052 41.7947C47.6052 44.9382 48.8563 49.0746 51.9792 50.4973C54.1084 51.4668 55.2497 49.8525 56.9958 49.0608C59.1313 48.092 61.1404 48.2293 63.4043 49.0217C65.3173 49.6905 67.2591 51.449 69.3492 50.498C72.4735 49.0766 73.7252 44.9389 73.7252 41.7947C73.7239 34.2629 67.3827 29.076 60.7476 28.8906Z" fill="#048CCF"/>
<path d="M68.0239 15.1817C68.0239 19.246 64.7294 22.5412 60.6651 22.5412C56.6009 22.5412 53.3057 19.246 53.3057 15.1817C53.3057 11.1175 56.6009 7.82295 60.6651 7.82295C64.7294 7.82295 68.0239 11.1175 68.0239 15.1817Z" fill="#096E9F"/>
<path d="M83.1562 22.9951C83.1562 26.2477 80.5188 28.8851 77.2655 28.8851C74.0122 28.8851 71.3748 26.2477 71.3748 22.9951C71.3748 19.7417 74.0122 17.1043 77.2655 17.1043C80.5188 17.1043 83.1562 19.7417 83.1562 22.9951Z" fill="#096E9F"/>
<path d="M49.9548 22.9951C49.9548 26.2477 47.3181 28.8851 44.0648 28.8851C40.8115 28.8851 38.1741 26.2477 38.1741 22.9951C38.1741 19.7417 40.8115 17.1043 44.0648 17.1043C47.3181 17.1043 49.9548 19.7417 49.9548 22.9951Z" fill="#096E9F"/>
<path d="M20.7788 79.988H2.86279C2.2867 79.988 1.81909 79.5211 1.81909 78.9443V51.3302C1.81909 50.7541 2.28601 50.2865 2.86279 50.2865H20.7788C21.3555 50.2865 21.8231 50.7541 21.8231 51.3302V78.9443C21.8231 79.5204 21.3555 79.988 20.7788 79.988Z" fill="#096E9F"/>
<path d="M28.9031 53.9429H36.8489C38.0416 53.9429 39.2275 54.1248 40.3653 54.4812L61.5593 61.1272C63.6439 61.7809 65.8906 61.6965 67.921 60.889L81.7247 55.3972C83.9061 54.5293 86.398 55.1582 87.9058 56.9579C89.6946 59.0927 89.5826 62.2307 87.6477 64.2336C83.1069 68.9344 74.3103 76.9661 63.992 80.8779C61.0244 82.0026 57.8397 82.4325 54.6777 82.164C47.974 81.5948 34.8638 79.9372 28.9031 75.4259V53.9429Z" fill="#048CCF"/>
<path d="M27.9039 77.5717H21.823V52.7028H27.9039C28.456 52.7028 28.903 53.1498 28.903 53.7019V76.5727C28.903 77.1247 28.456 77.5717 27.9039 77.5717Z" fill="#9DC6FB"/>
</svg>
