<svg width="90" height="90" viewBox="0 0 90 90" fill="none" xmlns="http://www.w3.org/2000/svg">
<path fill-rule="evenodd" clip-rule="evenodd" d="M27.3849 26.7583C29.3229 30.1162 32.8203 31.7255 35.1917 30.3555C37.5681 28.9803 37.9218 25.1492 35.9838 21.7912C34.0458 18.4333 30.5485 16.824 28.177 18.1941C25.8008 19.569 25.447 23.4004 27.3849 26.7583Z" fill="#048CCF"/>
<path fill-rule="evenodd" clip-rule="evenodd" d="M41.6784 11.224C41.6784 15.6282 44.2042 19.2004 47.3231 19.2004C50.4369 19.2004 52.9678 15.6282 52.9678 11.224C52.9678 6.81486 50.4369 3.24264 47.3231 3.24264C44.2042 3.24246 41.6784 6.81469 41.6784 11.224Z" fill="#048CCF"/>
<path fill-rule="evenodd" clip-rule="evenodd" d="M61.3972 11.224C61.3972 15.6282 63.923 19.2004 67.0419 19.2004C70.1608 19.2004 72.6866 15.6282 72.6866 11.224C72.6866 6.81486 70.1608 3.24264 67.0419 3.24264C63.923 3.24264 61.3972 6.81469 61.3972 11.224Z" fill="#048CCF"/>
<path fill-rule="evenodd" clip-rule="evenodd" d="M79.168 30.3553C81.5444 31.7254 85.0417 30.1163 86.9797 26.7581C88.9177 23.4002 88.564 19.5688 86.1876 18.1939C83.8112 16.8238 80.3188 18.4329 78.3808 21.7911C76.4428 25.149 76.7965 28.9804 79.168 30.3553Z" fill="#048CCF"/>
<path fill-rule="evenodd" clip-rule="evenodd" d="M24.4306 80.0074H29.7065C30.4189 80.0074 30.3541 80.0422 31.4054 80.3262L48.9022 85.0045C55.0549 86.6735 57.5211 88.203 63.3649 84.307L84.937 68.947C86.9048 67.542 87.6371 64.9464 86.3668 62.8838C85.0913 60.8261 82.4609 60.3478 80.3037 61.454L65.6169 68.997C64.8397 67.587 63.335 66.6204 61.6162 66.6204H52.4195C51.0694 66.6204 50.8751 66.3963 50.0282 65.5991C43.2527 59.217 37.7177 59.5308 30.9371 62.2013C29.4824 62.7792 29.2881 62.7741 27.9529 62.829H24.4306V80.0074Z" fill="#6EBADF"/>
<path fill-rule="evenodd" clip-rule="evenodd" d="M14.7407 83.0864H23.2499C23.8975 83.0864 24.4306 82.5532 24.4306 81.9056V80.0074V62.829V61.12C24.4306 60.4673 23.8975 59.9393 23.2499 59.9393H14.7407V83.0864Z" fill="#048CCF"/>
<path fill-rule="evenodd" clip-rule="evenodd" d="M2.93255 83.0916H14.7366V59.9414H2.93255C2.28479 59.9414 1.75165 60.4696 1.75165 61.1223V81.9107C1.75165 82.5585 2.28479 83.0916 2.93255 83.0916Z" fill="#048CCF"/>
<path fill-rule="evenodd" clip-rule="evenodd" d="M53.4259 51.6141C56.186 50.1594 58.1737 50.1594 60.9388 51.6141C64.491 53.4923 68.7605 53.7664 71.7746 50.5578C74.4599 47.7081 75.3467 43.6377 74.4449 39.9807C73.867 37.6492 72.746 35.8156 70.9824 34.4108L61.7358 27.0373C58.5772 24.0978 55.7873 24.0978 52.6287 27.0373L43.3772 34.4108C41.6136 35.8158 40.4975 37.6492 39.9197 39.9807C39.0131 43.6377 39.9048 47.7081 42.5851 50.5578C45.5992 53.7664 49.8688 53.4923 53.4259 51.6141Z" fill="#048CCF"/>
</svg>
