<svg width="90" height="90" viewBox="0 0 90 90" fill="none" xmlns="http://www.w3.org/2000/svg">
<path d="M15.207 23.2322H15.2052L2.90527 18.4789L13.5721 14.3953H13.5739C13.5 14.9965 13.4614 15.6083 13.4614 16.2288C13.4614 18.7619 14.0925 21.1456 15.207 23.2322Z" fill="#048CCF"/>
<path d="M87.0932 86.4231C80.6193 90.633 71.9582 88.7978 67.7482 82.3238L57.8591 67.1167L74.5556 67.1169L87.0932 86.4231Z" fill="#048CCF"/>
<path d="M43.1117 18.4843C43.2233 17.7487 43.2815 16.9956 43.2815 16.2288C43.2815 7.99398 36.6059 1.31841 28.3711 1.31841C20.1363 1.31841 13.4608 7.99398 13.4608 16.2288C13.4608 21.2265 15.9221 25.6465 19.696 28.3519V33.8804C19.696 52.2362 34.5765 67.1167 52.9323 67.1167H74.5557L43.1117 18.4843Z" fill="#048CCF"/>
<path d="M43.1573 18.4785C31.8942 31.0827 33.8089 49.5201 47.6319 60.026C59.0024 68.6677 74.946 69.2939 86.926 62.5417L43.1573 18.4785Z" fill="#6EBADF"/>
<path d="M46.0369 21.378C42.6665 32.2804 46.3679 44.4395 56.6224 52.2317C64.3224 58.0838 74.1219 60.2592 83.3658 58.9564L46.0369 21.378Z" fill="#048CCF"/>
<path d="M23.4591 16.9951C22.731 16.9951 22.1407 16.4048 22.1407 15.6768C22.1407 14.9487 22.731 14.3584 23.4591 14.3584C24.1872 14.3584 24.7775 14.9487 24.7775 15.6768C24.7775 16.4048 24.1872 16.9951 23.4591 16.9951Z" fill="black"/>
</svg>
