<svg width="91" height="90" viewBox="0 0 91 90" fill="none" xmlns="http://www.w3.org/2000/svg">
<path d="M37.5467 35.0836L30.8608 32.4947L35.142 21.4386C35.8956 19.4926 37.1498 17.7801 38.7777 16.4744L40.6766 14.9512C42.892 13.1745 46.2 14.4555 46.6411 17.2608L47.0192 19.6657C47.3433 21.7273 47.1171 23.8377 46.3635 25.7838L43.8386 32.3042C42.8686 34.8092 40.0516 36.0536 37.5467 35.0836Z" fill="#048CCF"/>
<path d="M47.019 19.6659L46.6409 17.261C46.386 15.6393 45.1724 14.5287 43.766 14.2221C43.7802 14.2891 43.7941 14.3564 43.805 14.4253L44.1831 16.8302C44.5073 18.8917 44.281 21.0022 43.5275 22.9482L41.0027 29.4687C40.0328 31.9737 37.2157 33.2181 34.7108 32.2479L31.446 30.9837L30.8608 32.4949L37.5467 35.0838C40.0517 36.0538 42.8686 34.8094 43.8386 32.3045L46.3633 25.7841C47.1169 23.8379 47.343 21.7273 47.019 19.6659Z" fill="#5EABD1"/>
<path d="M11.4356 35.0836L18.1215 32.4947L13.8403 21.4386C13.0867 19.4926 11.8325 17.7801 10.2046 16.4744L8.30565 14.9512C6.09027 13.1745 2.78225 14.4555 2.34121 17.2608L1.96311 19.6657C1.63897 21.7273 1.8652 23.8377 2.61877 25.7838L5.14352 32.3042C6.11365 34.8092 8.93055 36.0536 11.4356 35.0836Z" fill="#048CCF"/>
<path d="M13.8404 21.4386C13.0868 19.4926 11.8326 17.7801 10.2047 16.4744L8.3057 14.9512C7.07893 13.9672 5.51746 13.9224 4.29297 14.5536L5.91561 15.8549C7.54352 17.1606 8.79771 18.8731 9.55129 20.8192L13.8324 31.8753L7.1466 34.4642C7.06891 34.4943 6.99086 34.5222 6.91246 34.548C8.1932 35.4324 9.87508 35.6878 11.4358 35.0835L18.1217 32.4946L13.8404 21.4386Z" fill="#5EABD1"/>
<path d="M37.0689 53.6883L33.2098 57.0164C28.2 61.3368 20.7819 61.3368 15.7723 57.0164L11.9132 53.6883C8.81506 51.0165 7.03369 47.128 7.03369 43.0367V33.717C7.03369 29.1331 10.7497 25.4173 15.3334 25.4173H33.6487C38.2326 25.4173 41.9484 29.1333 41.9484 33.717V43.0367C41.9484 47.1278 40.167 51.0163 37.0689 53.6883Z" fill="#048CCF"/>
<path d="M35.2102 25.566C35.6938 26.6191 35.9654 27.7896 35.9654 29.0243V38.344C35.9654 42.4352 34.184 46.3236 31.0859 48.9957L27.2268 52.3237C23.0115 55.9591 17.0914 56.5346 12.3354 54.0524L15.7725 57.0166C20.7823 61.3369 28.2004 61.3369 33.21 57.0166L37.0691 53.6885C40.1672 51.0166 41.9486 47.1282 41.9486 43.0369V33.7171C41.9486 29.6671 39.0473 26.2967 35.2102 25.566Z" fill="#5EABD1"/>
<path d="M79.5643 35.0836L72.8784 32.4947L77.1596 21.4386C77.9131 19.4926 79.1673 17.7801 80.7952 16.4744L82.6942 14.9512C84.9096 13.1745 88.2176 14.4555 88.6586 17.2608L89.0367 19.6657C89.3609 21.7273 89.1347 23.8377 88.3811 25.7838L85.8562 32.3042C84.8862 34.8092 82.0693 36.0536 79.5643 35.0836Z" fill="#048CCF"/>
<path d="M89.0368 19.6659L88.6587 17.261C88.4038 15.6393 87.1902 14.5287 85.7838 14.2221C85.7981 14.2891 85.8119 14.3564 85.8228 14.4253L86.2009 16.8302C86.5251 18.8917 86.2988 21.0022 85.5453 22.9482L83.0205 29.4687C82.0506 31.9737 79.2335 33.2181 76.7286 32.2479L73.4638 30.9837L72.8787 32.4949L79.5645 35.0838C82.0696 36.0538 84.8865 34.8094 85.8564 32.3045L88.3812 25.7841C89.1347 23.8379 89.361 21.7273 89.0368 19.6659Z" fill="#5EABD1"/>
<path d="M53.4534 35.0836L60.1393 32.4947L55.8581 21.4386C55.1045 19.4926 53.8503 17.7801 52.2224 16.4744L50.3235 14.9512C48.1081 13.1745 44.8001 14.4555 44.359 17.2608L43.9809 19.6657C43.6568 21.7273 43.883 23.8377 44.6366 25.7838L47.1613 32.3042C48.1315 34.8092 50.9485 36.0536 53.4534 35.0836Z" fill="#048CCF"/>
<path d="M55.8582 21.4386C55.1046 19.4926 53.8504 17.7801 52.2225 16.4744L50.3235 14.9512C49.0967 13.9672 47.5353 13.9224 46.3108 14.5536L47.9334 15.8549C49.5613 17.1606 50.8155 18.8731 51.5691 20.8192L55.8503 31.8753L49.1644 34.4642C49.0867 34.4943 49.0087 34.5222 48.9303 34.548C50.211 35.4324 51.8929 35.6878 53.4537 35.0835L60.1395 32.4946L55.8582 21.4386Z" fill="#5EABD1"/>
<path d="M79.0867 53.6883L75.2276 57.0164C70.2179 61.3368 62.7997 61.3368 57.7901 57.0164L53.931 53.6883C50.8329 51.0165 49.0515 47.128 49.0515 43.0367V33.717C49.0515 29.1331 52.7675 25.4173 57.3512 25.4173H75.6666C80.2504 25.4173 83.9662 29.1333 83.9662 33.717V43.0367C83.9662 47.1278 82.1851 51.0163 79.0867 53.6883Z" fill="#048CCF"/>
<path d="M77.2278 25.566C77.7114 26.6191 77.9829 27.7896 77.9829 29.0243V38.344C77.9829 42.4352 76.2016 46.3236 73.1034 48.9957L69.2443 52.3237C65.0291 55.9591 59.109 56.5346 54.353 54.0524L57.7901 57.0166C62.7998 61.3369 70.218 61.3369 75.2276 57.0166L79.0867 53.6885C82.1848 51.0166 83.9662 47.1282 83.9662 43.0369V33.7171C83.9662 29.6671 81.0649 26.2967 77.2278 25.566Z" fill="#5EABD1"/>
<path d="M73.582 43.7498V43.7008C73.582 41.7296 72.6054 39.8863 70.9743 38.7793L69.6741 37.8967C67.7633 36.5998 65.2547 36.5998 63.344 37.8967L62.0437 38.7793C60.4127 39.8863 59.436 41.7296 59.436 43.7008V43.7498C59.436 44.4832 59.1467 45.1775 58.6636 45.7291C58.1439 46.3228 57.8289 47.0999 57.8289 47.9508V48.6099C57.8289 52.6672 61.1179 55.9563 65.1753 55.9563H67.8429C71.9003 55.9563 75.1894 52.6672 75.1894 48.6099V47.9508C75.1894 47.0999 74.8744 46.3226 74.3546 45.7291C73.8712 45.1775 73.582 44.4832 73.582 43.7498Z" fill="#096E9F"/>
<path d="M73.1034 48.9955L69.2443 52.3236C67.2532 54.0406 64.8814 55.0728 62.4319 55.4251C63.2797 55.7666 64.2048 55.9564 65.1748 55.9564H67.8424C71.8998 55.9564 75.1889 52.6674 75.1889 48.61V47.951C75.1889 47.6042 75.134 47.2706 75.0368 46.9557C74.4666 47.6923 73.8209 48.3769 73.1034 48.9955Z" fill="#048CCF"/>
<path d="M51.9392 58.5446C51.3697 58.3508 50.7594 58.2451 50.1243 58.2441C48.6104 58.2418 47.2348 58.8347 46.2184 59.802C45.812 60.1889 45.1674 60.1808 44.7584 59.7966C43.7327 58.8329 42.3472 58.2478 40.8242 58.2645C37.2947 58.3033 34.7248 61.5259 35.315 65.006C35.5202 66.2158 36.1444 67.0934 37.506 68.449C38.9307 69.8676 43.4105 74.1509 44.9793 75.6491C45.2866 75.9426 45.7695 75.9412 46.0755 75.6462C47.6927 74.0872 52.4103 69.535 53.5557 68.3847C54.9442 66.9902 55.7667 65.7316 55.7695 63.9067C55.7732 61.4192 54.17 59.3044 51.9392 58.5446Z" fill="#048CCF"/>
<path d="M51.9392 58.5446C51.3697 58.3508 50.7594 58.2451 50.1243 58.2441C50.0074 58.2439 49.8912 58.2474 49.776 58.2543C51.2431 59.2777 52.2023 60.9783 52.1994 62.9026C52.1965 64.7276 51.3739 65.9862 49.9856 67.3806C48.978 68.3926 45.2068 72.0362 43.2129 73.9598C43.9329 74.649 44.5599 75.2481 44.9788 75.6482C45.2862 75.9417 45.7702 75.9407 46.0762 75.6455C47.6939 74.086 52.4106 69.5347 53.5559 68.3845C54.9442 66.9901 55.7668 65.7315 55.7696 63.9065C55.7732 61.4192 54.17 59.3044 51.9392 58.5446Z" fill="#5EABD1"/>
<path d="M31.5642 43.7498V43.7008C31.5642 41.7296 30.5876 39.8863 28.9565 38.7793L27.6562 37.8967C25.7455 36.5998 23.2369 36.5998 21.3262 37.8967L20.0259 38.7793C18.3948 39.8863 17.4182 41.7296 17.4182 43.7008V43.7498C17.4182 44.4832 17.1289 45.1775 16.6458 45.7291C16.126 46.3228 15.811 47.0999 15.811 47.9508V48.6099C15.811 52.6672 19.1001 55.9563 23.1575 55.9563H25.8251C29.8825 55.9563 33.1715 52.6672 33.1715 48.6099V47.9508C33.1715 47.0999 32.8565 46.3226 32.3368 45.7291C31.8534 45.1775 31.5642 44.4832 31.5642 43.7498Z" fill="#096E9F"/>
<path d="M31.0858 48.9955L27.2267 52.3236C25.2356 54.0406 22.8638 55.0728 20.4143 55.4251C21.2621 55.7666 22.1872 55.9564 23.1572 55.9564H25.8249C29.8822 55.9564 33.1713 52.6674 33.1713 48.61V47.951C33.1713 47.6042 33.1164 47.2706 33.0192 46.9557C32.449 47.6923 31.8032 48.3769 31.0858 48.9955Z" fill="#048CCF"/>
<path d="M14.0417 41.6347C15.3233 41.6347 16.3622 40.5958 16.3622 39.3142C16.3622 38.0326 15.3233 36.9937 14.0417 36.9937C12.7601 36.9937 11.7212 38.0326 11.7212 39.3142C11.7212 40.5958 12.7601 41.6347 14.0417 41.6347Z" fill="black"/>
<path d="M34.9404 41.6347C36.2219 41.6347 37.2608 40.5958 37.2608 39.3142C37.2608 38.0326 36.2219 36.9937 34.9404 36.9937C33.6588 36.9937 32.6199 38.0326 32.6199 39.3142C32.6199 40.5958 33.6588 41.6347 34.9404 41.6347Z" fill="black"/>
<path d="M56.0595 41.6347C57.3411 41.6347 58.38 40.5958 58.38 39.3142C58.38 38.0326 57.3411 36.9937 56.0595 36.9937C54.7779 36.9937 53.739 38.0326 53.739 39.3142C53.739 40.5958 54.7779 41.6347 56.0595 41.6347Z" fill="black"/>
<path d="M76.9584 41.6347C78.24 41.6347 79.2789 40.5958 79.2789 39.3142C79.2789 38.0326 78.24 36.9937 76.9584 36.9937C75.6769 36.9937 74.6379 38.0326 74.6379 39.3142C74.6379 40.5958 75.6769 41.6347 76.9584 41.6347Z" fill="black"/>
<path d="M70.537 49.4975C69.4737 49.1328 68.548 48.4356 67.892 47.5207V45.553C67.892 44.8249 67.3017 44.2346 66.5737 44.2346C65.8456 44.2346 65.2553 44.8249 65.2553 45.553V47.5212C64.6156 48.413 63.7165 49.1003 62.6861 49.471C62.0011 49.7174 61.6455 50.4726 61.8919 51.1578C62.1383 51.843 62.8937 52.1988 63.5787 51.952C64.7076 51.5457 65.7322 50.8864 66.5735 50.0381C67.4424 50.915 68.5065 51.5886 69.6818 51.9915C69.8235 52.0402 69.9676 52.0632 70.1097 52.0632C70.6574 52.0632 71.1691 51.7192 71.3567 51.1722C71.5926 50.4835 71.2257 49.7338 70.537 49.4975Z" fill="black"/>
<path d="M69.9575 45.147C69.9575 47.0157 68.4426 46.572 66.5737 46.572C64.705 46.572 63.1899 47.0159 63.1899 45.147C63.1899 43.2781 64.705 41.7632 66.5737 41.7632C68.4425 41.7632 69.9575 43.2781 69.9575 45.147Z" fill="black"/>
<path d="M28.4307 49.4975C27.3674 49.1328 26.4416 48.4356 25.7857 47.5205V45.5528C25.7857 44.8247 25.1955 44.2345 24.4674 44.2345C23.7393 44.2345 23.149 44.8247 23.149 45.5528V47.5212C22.5094 48.413 21.6102 49.1003 20.5798 49.471C19.8946 49.7174 19.539 50.4726 19.7855 51.1578C20.0319 51.843 20.7876 52.1989 21.4722 51.9521C22.6011 51.5461 23.6259 50.8866 24.467 50.0382C25.3359 50.915 26.4001 51.5888 27.5754 51.9917C27.7171 52.0402 27.8612 52.0634 28.0032 52.0634C28.551 52.0634 29.0627 51.7194 29.2502 51.1724C29.4863 50.4837 29.1194 49.7338 28.4307 49.4975Z" fill="black"/>
<path d="M27.8513 45.147C27.8513 47.0157 26.3363 46.572 24.4675 46.572C22.5988 46.572 21.0837 47.0159 21.0837 45.147C21.0837 43.2781 22.5988 41.7632 24.4675 41.7632C26.3364 41.7632 27.8513 43.2781 27.8513 45.147Z" fill="black"/>
</svg>
