<svg width="90" height="90" viewBox="0 0 90 90" fill="none" xmlns="http://www.w3.org/2000/svg">
<path d="M75.6478 39.4073L64.7274 42.2255C64.7274 42.2255 70.7161 55.3475 70.3638 60.5436C69.8873 67.573 66.1366 76.0435 66.1366 76.0435H65.3498C64.1368 76.0435 63.0597 76.8198 62.6762 77.9704L62.2779 79.1654C62.0966 79.7092 62.5013 80.2707 63.0745 80.2707H68.3949C68.734 80.2707 69.0397 80.0668 69.1701 79.7539L76.0002 63.3616L75.6478 39.4073Z" fill="#096E9F"/>
<path d="M44.3577 77.9706L43.9594 79.1655C43.7782 79.7094 44.1828 80.2709 44.7561 80.2709H51.1339C51.6249 80.2709 52.0111 79.8516 51.971 79.3624L50.6365 63.0977L46.057 46.4528L39.7161 47.1574C44.3836 58.6062 47.8184 76.0437 47.8184 76.0437H47.0316C45.8183 76.0437 44.7415 76.8199 44.3577 77.9706Z" fill="#096E9F"/>
<path d="M83.992 56.3273C83.3746 55.4013 83.0452 54.3132 83.0452 53.2004V37.9985C83.0452 29.8962 74.0623 25.8451 69.659 21.9702C64.4481 17.3846 61.5567 11.5782 55.7443 11.5782C51.2882 11.5782 50.6364 15.4531 47.8181 17.9191C43.284 21.8865 40.1792 23.4601 36.0171 26.3737C33.3267 28.2568 32.0518 30.5054 31.4485 32.259C30.8521 33.9919 29.2628 35.1805 27.4303 35.1805H26.6818C23.5689 35.1805 21.0454 32.657 21.0454 29.5441V9.81668H14.342C13.2209 9.81668 12.1456 10.2621 11.3528 11.0549L9.77291 12.6348L4.85068 13.4552C2.81232 13.795 1.31836 15.5584 1.31836 17.6249V18.2711C1.31836 19.0492 1.94924 19.6801 2.72742 19.6801H13.8829V31.8913C13.8829 39.7612 21.7914 47.099 33.6946 47.1043C34.4851 47.1046 35.1366 47.7197 35.1366 48.5102V76.0437H34.3496C33.1367 76.0437 32.0597 76.8199 31.6761 77.9706L31.4968 78.5085C31.2079 79.3756 31.8531 80.271 32.7672 80.271H38.1169C38.8195 80.271 39.4026 79.728 39.4525 79.0274L41.5557 49.5809C48.9229 49.4931 61.7171 47.9032 70.4259 41.8018L71.1682 45.1417C71.5695 46.9471 72.2225 48.6872 73.1081 50.3107L80.2271 63.3621V76.0438H79.4401C78.2271 76.0438 77.1502 76.8201 76.7667 77.9708L76.5874 78.5087C76.2984 79.3758 76.9437 80.2712 77.8577 80.2712H83.2015C83.9064 80.2712 84.4907 79.7247 84.5376 79.0212L85.8015 60.0643C85.8417 59.4617 85.6818 58.8626 85.3469 58.3601L83.992 56.3273Z" fill="#048CCF"/>
<path d="M17.9711 11.8116L19.2095 13.7248C19.5769 14.2924 20.3581 14.4112 20.8775 13.9783L23.2889 11.9689C23.6257 11.6882 23.6496 11.177 23.33 10.877C22.5578 10.1522 20.9438 9.1633 18.4635 10.1635C17.8205 10.4228 17.5944 11.2296 17.9711 11.8116Z" fill="#096E9F"/>
<path d="M30.9092 42.2256C23.9052 42.2256 18.2275 36.5479 18.2275 29.5439V23.9075C18.2275 21.5728 16.3349 19.6803 14.0003 19.6803H13.8831V31.8915C13.8831 39.7614 21.7916 47.0992 33.6948 47.1044C34.2651 47.1046 34.7541 47.4311 34.9874 47.9064C35.0832 47.8781 35.1366 47.8621 35.1366 47.8621V46.453C35.1364 44.1181 33.2438 42.2256 30.9092 42.2256Z" fill="#5EABD1"/>
<path d="M6.95478 16.862V15.4529C6.95478 14.6447 6.77813 13.8799 6.47174 13.185L4.85068 13.4552C2.8125 13.795 1.31836 15.5586 1.31836 17.6249V18.2711C1.31836 19.0492 1.94924 19.6801 2.72742 19.6801H6.17291C6.65719 18.8483 6.95478 17.894 6.95478 16.862Z" fill="#096E9F"/>
<path d="M41.5558 47.6828V49.5807C48.923 49.493 61.7172 47.903 70.4259 41.8017L70.3982 41.5012C70.2653 40.0628 68.8151 39.1644 67.4519 39.6422C60.0717 42.2292 50.7129 43.1444 45.5072 43.4651C43.2814 43.6022 41.5558 45.4528 41.5558 47.6828Z" fill="#5EABD1"/>
<path d="M13.604 12.8577C12.8757 12.8577 12.2856 13.4478 12.2856 14.176C12.2856 14.9043 12.8757 15.4944 13.604 15.4944H14.1765C14.9048 15.4944 15.4949 14.9043 15.4949 14.176C15.4949 13.4478 14.9048 12.8577 14.1765 12.8577H13.604Z" fill="black"/>
</svg>
