<svg width="90" height="90" viewBox="0 0 90 90" fill="none" xmlns="http://www.w3.org/2000/svg">
<path d="M65.9413 30.0284C66.172 34.5836 72.0133 41.6567 71.3342 50.6813C70.7265 58.7548 66.9211 68.5601 59.1311 73.5197C59.162 73.9654 59.1792 74.3787 59.1792 74.7536C59.1792 79.6666 56.5961 82.5498 51.3501 84.0934C51.3549 84.0927 79.2141 78.0262 79.221 48.289C79.2271 17.9551 65.6385 24.0429 65.9413 30.0284Z" fill="#5EABD1"/>
<path d="M63.4337 69.908C62.1634 71.2786 60.731 72.5001 59.1312 73.5191C59.1621 73.9647 59.1792 74.3788 59.1792 74.7537C59.1792 79.6666 56.5961 82.5499 51.3501 84.0934C51.3501 84.0934 56.9572 82.8726 63.1412 78.8427C63.6644 77.6692 63.9253 76.3137 63.9253 74.7537C63.9253 73.5047 63.7427 71.8375 63.4337 69.908Z" fill="#3093C2"/>
<path d="M42.8879 10.3642C42.8879 10.3642 46.5752 0.91461 49.7351 1.5683C52.939 2.23091 52.3169 12.8911 52.3169 12.8911C52.3169 12.8911 58.9355 23.0493 58.7212 28.8927C58.507 34.7353 54.7504 38.6334 51.0336 39.3441C51.0336 39.3441 59.1792 66.3856 59.1792 74.7537C59.1792 83.1219 51.69 85.6028 36.3016 85.6028C20.9139 85.6028 13.4247 83.1219 13.4247 74.7537C13.4247 66.3856 21.5703 39.3441 21.5703 39.3441C17.8535 38.6334 14.0969 34.7353 13.8827 28.8927C13.6678 23.0486 20.287 12.8911 20.287 12.8911C20.287 12.8911 19.6649 2.23091 22.8681 1.5683C26.028 0.91461 29.716 10.3642 29.716 10.3642H42.8879Z" fill="#048CCF"/>
<path d="M36.3016 80.8573C22.2927 80.8573 14.8309 78.8001 13.606 72.117C13.4892 73.1208 13.4247 74.0121 13.4247 74.7537C13.4247 83.1225 20.9139 85.6034 36.3016 85.6034C51.69 85.6034 59.1792 83.1218 59.1792 74.7537C59.1792 74.0121 59.114 73.1208 58.9973 72.117C57.7723 78.8001 50.3105 80.8573 36.3016 80.8573Z" fill="#5EABD1"/>
<path d="M22.868 1.5683C19.6648 2.23091 20.2869 12.8911 20.2869 12.8911C20.2869 12.8911 13.6676 23.0493 13.8826 28.8927C13.9959 31.9826 15.1 34.5273 16.6642 36.3456C35.2723 32.1845 33.6346 10.3642 33.6346 10.3642H29.7159C29.7159 10.3642 26.028 0.914609 22.868 1.5683Z" fill="#5EABD1"/>
<path d="M49.7351 1.5683C52.939 2.23091 52.3169 12.8911 52.3169 12.8911C52.3169 12.8911 58.9355 23.0493 58.7213 28.8927C58.608 31.9826 57.5038 34.5273 55.9397 36.3456C37.3309 32.1845 38.9686 10.3642 38.9686 10.3642H42.8879C42.8879 10.3642 46.5752 0.914609 49.7351 1.5683Z" fill="#5EABD1"/>
<path d="M22.4177 54.3658C22.4177 54.3658 23.7024 88.4674 28.6106 88.4674C33.518 88.4674 33.6348 57.7242 33.6348 57.7242" fill="#096E9F"/>
<path d="M50.1863 54.3658C50.1863 54.3658 48.9009 88.4674 43.9934 88.4674C39.0859 88.4674 38.9685 57.7242 38.9685 57.7242" fill="#096E9F"/>
<path d="M27.8332 23.9426C27.8332 22.0701 26.6521 20.6028 25.1443 20.6028C23.6371 20.6028 22.4561 22.0695 22.4561 23.9426C22.4561 25.8151 23.6371 27.2817 25.1443 27.2817C26.6521 27.2817 27.8332 25.8151 27.8332 23.9426Z" fill="black"/>
<path d="M50.0647 23.9426C50.0647 22.0701 48.8837 20.6028 47.3765 20.6028C45.8687 20.6028 44.6876 22.0695 44.6876 23.9426C44.6876 25.8151 45.8687 27.2817 47.3765 27.2817C48.8837 27.2817 50.0647 25.8151 50.0647 23.9426Z" fill="black"/>
<path d="M36.2604 34.1414C36.9924 34.1414 37.585 33.5488 37.585 32.8168V29.8471C39.132 29.4035 40.3302 28.2321 40.3302 26.9728C40.3302 26.5114 40.1523 25.3956 38.5064 25.0062C37.9667 24.8785 37.2952 24.8236 36.2604 24.8236C35.2263 24.8236 34.5548 24.8785 34.0144 25.0062C32.3685 25.3956 32.1907 26.5114 32.1907 26.9728C32.1907 28.2321 33.3889 29.4035 34.9359 29.8471V32.8168C34.9359 33.5488 35.5291 34.1414 36.2604 34.1414Z" fill="black"/>
</svg>
