<svg width="91" height="90" viewBox="0 0 91 90" fill="none" xmlns="http://www.w3.org/2000/svg">
<path d="M86.5449 18.6328C86.5449 21.4509 85.5554 24.0414 83.9082 26.0791L69.4062 48.9551H74.6797C82.6888 48.9551 89.1816 42.4622 89.1816 34.4531V18.6328H86.5449Z" fill="#0E94C9"/>
<path d="M83.9082 34.4531V26.0791C81.7313 28.7719 78.404 30.498 74.6797 30.498H16.3203C9.77773 30.498 4.45508 25.1754 4.45508 18.6328H1.81836V34.4531C1.81836 42.4622 8.31119 48.9551 16.3203 48.9551H53.4102L58.6836 51.5918H69.4062V48.9551C77.4154 48.9551 83.9082 42.4622 83.9082 34.4531ZM18.957 43.6816C17.5009 43.6816 16.3203 42.5011 16.3203 41.0449C16.3203 39.5888 17.5009 38.4082 18.957 38.4082C20.4132 38.4082 21.5938 39.5888 21.5938 41.0449C21.5938 42.5011 20.4132 43.6816 18.957 43.6816ZM32.2285 43.6816C30.7723 43.6816 29.5918 42.5011 29.5918 41.0449C29.5918 39.5888 30.7723 38.4082 32.2285 38.4082C33.6847 38.4082 34.8652 39.5888 34.8652 41.0449C34.8652 42.5011 33.6847 43.6816 32.2285 43.6816ZM58.7715 43.6816C57.3153 43.6816 56.1348 42.5011 56.1348 41.0449C56.1348 39.5888 57.3153 38.4082 58.7715 38.4082C60.2277 38.4082 61.4082 39.5888 61.4082 41.0449C61.4082 42.5011 60.2277 43.6816 58.7715 43.6816Z" fill="#048CCF"/>
<path d="M74.6797 6.76758H16.3203C9.77773 6.76758 4.45508 12.0902 4.45508 18.6328C4.45508 19.2621 4.5043 19.88 4.59922 20.4831H7.2776C9.75734 18.5019 12.8994 17.3145 16.3203 17.3145H74.6797C78.1006 17.3145 81.2427 18.5019 83.7224 20.4831H86.4043C86.4969 19.887 86.5449 19.2546 86.5449 18.6328C86.5449 12.0902 81.2223 6.76758 74.6797 6.76758Z" fill="#0E94C9"/>
<path d="M74.6797 4.13086H16.3203C8.31102 4.13086 1.81836 10.6237 1.81836 18.6328C1.81836 26.6419 8.31102 33.1348 16.3203 33.1348H74.6797C82.6888 33.1348 89.1816 26.6419 89.1816 18.6328C89.1816 10.6237 82.689 4.13086 74.6797 4.13086ZM83.9082 18.6328C83.9082 23.7296 79.7765 27.8613 74.6797 27.8613L69.4062 25.2246H58.6836L53.4102 27.8613H16.3203C11.2235 27.8613 7.0918 23.7296 7.0918 18.6328C7.0918 13.536 11.2235 9.4043 16.3203 9.4043H74.6797C79.7765 9.4043 83.9082 13.536 83.9082 18.6328Z" fill="#096E9F"/>
<path d="M69.4062 22.5879H64.1328L69.4062 27.8613V48.9551L64.1328 54.2285H69.4062C72.3188 54.2285 74.6797 51.8676 74.6797 48.9551V27.8613C74.6797 24.9488 72.3188 22.5879 69.4062 22.5879Z" fill="#62A7FF"/>
<path d="M69.4062 48.9551V27.8613C69.4062 24.9488 67.0453 22.5879 64.1328 22.5879H58.6836C55.7711 22.5879 53.4102 24.9488 53.4102 27.8613H69.4062V48.9551H53.4102C53.4102 51.8676 55.7711 54.2285 58.6836 54.2285H64.1328C67.0453 54.2285 69.4062 51.8676 69.4062 48.9551Z" fill="#9DC6FB"/>
<path d="M42.8633 27.8613V48.9551C42.8633 50.4112 44.0438 51.5918 45.5 51.5918C46.9562 51.5918 48.1367 50.4112 48.1367 48.9551V27.8613C48.1367 26.4052 46.9562 25.2246 45.5 25.2246C44.0438 25.2246 42.8633 26.4052 42.8633 27.8613Z" fill="#9DC6FB"/>
<path d="M45.5 56.8652V85.8691C53.5091 85.8691 60.002 79.3763 60.002 71.3672C60.002 63.3581 53.5091 56.8652 45.5 56.8652Z" fill="#096E9F"/>
<path d="M54.7285 71.3672C54.7285 63.3581 50.5968 56.8652 45.5 56.8652C37.4909 56.8652 30.998 63.3581 30.998 71.3672C30.998 79.3763 37.4909 85.8691 45.5 85.8691C50.5968 85.8691 54.7285 79.3763 54.7285 71.3672Z" fill="#048CCF"/>
</svg>
