<svg width="90" height="90" viewBox="0 0 90 90" fill="none" xmlns="http://www.w3.org/2000/svg">
<path d="M69.8306 74.1246H75.9344C82.9492 74.1246 88.6563 68.4177 88.6563 61.4027C88.6563 57.499 86.903 53.8678 83.8459 51.4402L75.6415 44.925C74.461 43.9874 72.7442 44.1844 71.8066 45.3651C70.8692 46.5455 71.0662 48.2625 72.2467 49.2L80.4511 55.7152C82.1962 57.1012 83.1973 59.1742 83.1973 61.4029C83.1973 65.4076 79.9392 68.6658 75.9344 68.6658H70.4435H58.436V74.1248H69.8306V74.1246Z" fill="#6EBADF"/>
<path d="M15.1725 88.6775H24.1656C25.1214 88.6775 26.0381 88.2978 26.714 87.6219C27.7211 86.6149 28.0406 85.1095 27.5296 83.7803L26.4596 80.9972V67.5745V54.2943H15.9199L15.1725 88.6775Z" fill="#E5E1E5"/>
<path d="M42.9643 80.6604L42.005 79.7488C39.6492 77.5093 38.5929 74.4094 38.8715 71.3993L38.8275 71.3958H38.4607C34.7822 71.3958 31.24 70.0045 28.5445 67.5013L27.0571 66.1199L21.7583 71.4187C21.2857 71.8913 21.0212 72.5296 21.0212 73.1962V84.1642C21.0212 84.963 20.6703 85.7212 20.0619 86.2397L17.2053 88.6696C17.1982 88.6722 17.1884 88.6757 17.1813 88.6784H8.64954C7.82465 88.6784 7.15599 88.0097 7.15599 87.1848V86.8727C7.15599 85.5555 7.64443 84.2841 8.52434 83.3055L12.5342 78.8495V47.6523L15.9198 37.5907V23.4955C15.9198 22.8648 15.4085 22.3536 14.7779 22.3536H11.2822C8.74829 22.3536 6.3489 21.2131 4.74919 19.248L2.01583 15.8909C1.58205 15.3566 1.34399 14.6901 1.34399 14.0006V12.2285C1.34399 10.5748 2.68449 9.2343 4.33816 9.2343H9.36017L15.5248 3.0714C16.6446 1.95167 18.1628 1.32216 19.7463 1.32216L28.071 1.32569C28.8187 1.32569 29.5523 1.46675 30.2364 1.73302C30.9224 2.00105 31.5572 2.39604 32.1073 2.90212C34.3979 5.01284 35.701 7.98585 35.7028 11.1017V12.6711L40.5608 29.3523C40.9946 30.8406 41.7881 32.2001 42.8743 33.3075L64.7205 55.6244C66.4979 57.4407 67.8857 59.5708 68.829 61.8826C69.7707 64.1943 70.2697 66.6859 70.2697 69.2287C70.2697 79.971 61.5623 88.6784 50.8218 88.6784H34.1846C33.5856 88.6784 33.1001 88.1929 33.1001 87.5939V84.0249C33.1001 82.1667 34.6064 80.6604 36.4646 80.6604H42.9643Z" fill="#048CCF"/>
<path d="M29.6988 68.4641L29.0878 67.8966L29.0423 67.9421C29.2562 68.1234 29.4759 68.2964 29.6988 68.4641Z" fill="#E5E1E5"/>
<path d="M9.18686 88.6496C9.18686 87.3324 9.67531 86.061 10.5552 85.0824L14.5651 80.6264V49.4293L17.9507 39.3676V25.2725C17.9507 24.6417 17.4393 24.1305 16.8088 24.1305H15.92V37.5907L12.5344 47.6523V78.8495L8.52455 83.3054C7.64464 84.2841 7.15619 85.5555 7.15619 86.8727V87.1848C7.15619 88.0097 7.82485 88.6784 8.64974 88.6784H9.18704V88.6496H9.18686Z" fill="#E5E1E5"/>
<path d="M32.1073 2.90212C31.5572 2.39604 30.9224 2.00105 30.2364 1.73302C29.5523 1.46675 28.8187 1.32569 28.071 1.32569L19.7463 1.32216C18.1628 1.32216 16.6446 1.95167 15.5248 3.0714L9.36017 9.2343H8.35612H7.54833H4.33816C2.68449 9.2343 1.34399 10.5748 1.34399 12.2285V14.0006C1.34399 14.6901 1.58205 15.3566 2.01583 15.8909L4.74919 19.248C6.34908 21.2131 8.74846 22.3536 11.2822 22.3536H14.7779C15.4086 22.3536 15.9198 22.865 15.9198 23.4955V37.5907L12.5342 47.6523V78.8495L8.52434 83.3055C7.64443 84.2841 7.15599 85.5555 7.15599 86.8727V87.1848C7.15599 88.0097 7.82465 88.6784 8.64954 88.6784H17.1813C17.1884 88.6757 17.1982 88.6722 17.2053 88.6696L17.367 88.532H13.5899C12.765 88.532 12.0964 87.8634 12.0964 87.0385V86.7263C12.0964 85.4091 12.5848 84.1378 13.4647 83.1591L16.8064 79.4457C17.2367 78.9676 17.4746 78.3473 17.4746 77.7042V47.506L20.8602 37.4443V23.3492C20.8602 22.7184 20.3488 22.2072 19.7182 22.2072H16.2226C13.6887 22.2072 11.2893 21.0667 9.68956 19.1016L6.95638 15.7446C6.52259 15.2103 6.28454 14.5437 6.28454 13.8543V12.0821C6.28454 11.0735 7.54851 11.0112 7.54851 11.0112H9.95389C10.874 11.0112 11.7566 10.6457 12.4072 9.99518L17.5555 4.84832C18.6752 3.7286 20.1935 3.09908 21.777 3.09908L30.1017 3.10261C30.8494 3.10261 31.5829 3.24368 32.2671 3.50994C32.5343 3.61433 32.7931 3.73847 33.0428 3.88042C32.7519 3.53798 32.4415 3.20982 32.1073 2.90212Z" fill="#5EABD1"/>
<path d="M10.8671 36.523C13.2448 36.523 15.1723 34.5955 15.1723 32.2178C15.1723 29.8401 13.2448 27.9126 10.8671 27.9126C8.4894 27.9126 6.56189 29.8401 6.56189 32.2178C6.56189 34.5955 8.4894 36.523 10.8671 36.523Z" fill="#6EBADF"/>
<path d="M9.84965 32.6313C9.84965 30.6516 11.1864 28.985 13.0064 28.4821C12.376 28.1203 11.6461 27.9124 10.8671 27.9124C8.4894 27.9124 6.56189 29.8399 6.56189 32.2176C6.56189 34.5953 8.4894 36.5228 10.8671 36.5228C11.2651 36.5228 11.6499 36.4676 12.0157 36.3666C10.7218 35.6242 9.84965 34.2301 9.84965 32.6313Z" fill="#048CCF"/>
<path d="M23.9608 33.7748C24.0066 34.0975 24.0296 34.4255 24.0296 34.7605C24.0296 38.6417 20.8837 41.7875 17.0026 41.7875C16.7963 41.7875 15.8265 41.6535 14.6133 41.4754L15.9199 37.5907V33.7748H16.3026H19.2773C20.8467 33.7748 22.4073 33.6602 23.9467 33.4345L23.9608 33.7748Z" fill="#0D6189"/>
<path d="M19.2773 33.7748H16.3026H15.9199V37.5907L14.6133 41.4754C15.8265 41.6535 16.7963 41.7875 17.0026 41.7875C17.9058 41.7875 18.7683 41.6152 19.5612 41.3048L20.8603 37.4443V33.7348C20.3339 33.7605 19.8062 33.7748 19.2773 33.7748Z" fill="#5EABD1"/>
<path d="M14.4351 49.8618C18.3215 49.8618 21.4708 53.0112 21.4708 56.8958C21.4708 58.839 20.6826 60.5971 19.4095 61.8702C18.1363 63.1434 16.3783 63.9316 14.4351 63.9316H12.5342V49.8618H14.4351Z" fill="#0D6189"/>
<path d="M17.4745 50.5504C16.5546 50.1092 15.5238 49.8618 14.4351 49.8618H12.5342V63.9316H14.4351C15.5239 63.9316 16.5548 63.6838 17.4745 63.2421V50.5504Z" fill="#5EABD1"/>
<path d="M42.8743 33.3075L58.4359 49.2059L56.7536 50.5354C54.5336 52.29 51.5077 52.6197 48.9614 51.3871L45.8138 49.8618L44.4402 50.1351C43.9588 50.2304 43.4739 50.278 42.9942 50.278C41.0563 50.278 39.1748 49.5144 37.7783 48.1179C35.1473 45.487 34.8864 41.3096 37.1699 38.3719L41.9556 32.2178C42.2325 32.6022 42.5393 32.9672 42.8743 33.3075Z" fill="#6EBADF"/>
<path d="M37.7184 19.5904L39.7427 26.5415L39.5858 26.5874L39.0956 26.9683C34.6714 30.4156 29.4448 32.6304 23.9467 33.4345C22.4073 33.6602 20.8467 33.7748 19.2773 33.7748H16.3026H15.9199V27.3262H16.1033H16.6905C23.8709 27.3262 30.8449 24.9298 36.5105 20.5197L37.5209 19.7315L37.7184 19.5904Z" fill="#6EBADF"/>
<path d="M20.8603 33.7348V27.0543C19.4836 27.2338 18.091 27.3262 16.6905 27.3262H16.1033H15.9199V33.7748H16.3026H19.2773C19.8062 33.7748 20.3339 33.7605 20.8603 33.7348Z" fill="#6EBADF"/>
<path d="M35.7028 11.1017L27.4239 16.8467C25.3802 18.2662 22.5835 16.8026 22.5835 14.3145V1.32392L28.071 1.32568C28.8187 1.32568 29.5522 1.46675 30.2364 1.73302C30.9224 2.00105 31.5572 2.39604 32.1073 2.90212C34.3979 5.01284 35.701 7.98585 35.7028 11.1017Z" fill="#6EBADF"/>
<path d="M16.3032 12.0324C17.2556 12.0324 18.0277 11.2603 18.0277 10.3078C18.0277 9.35538 17.2556 8.58327 16.3032 8.58327C15.3507 8.58327 14.5786 9.35538 14.5786 10.3078C14.5786 11.2603 15.3507 12.0324 16.3032 12.0324Z" fill="black"/>
</svg>
