<svg width="90" height="90" viewBox="0 0 90 90" fill="none" xmlns="http://www.w3.org/2000/svg">
<path d="M56.0486 71.6537C54.7995 72.1037 50.2854 73.6754 47.2314 74.2984C44.1775 74.9214 37.8575 78.0694 35.3337 82.5016C35.3337 82.5016 35.8569 75.273 43.6795 70.9955C51.502 66.7181 58.2038 65.0979 60.9782 63.7003L56.0486 71.6537Z" fill="#F7890F"/>
<path d="M42.947 88.6816V42.1978H21.0967C13.7711 57.8788 16.8022 74.2575 25.3807 88.6816H42.947Z" fill="#096E9F"/>
<path d="M21.1058 42.1782C21.1058 42.1782 7.86354 67.613 28.3833 76.0605L44.6238 42.2853L21.1058 42.1782Z" fill="#4EA1CA"/>
<path d="M29.4526 88.6816C24.151 51.4251 44.6238 42.2853 44.6238 42.2853C50.6767 49.8375 60.2971 58.5274 63.0802 68.0094V88.6623L29.4526 88.6816Z" fill="#048CCF"/>
<path d="M44.6238 42.2855C44.6238 42.2855 42.709 43.1405 40.2024 45.3929C46.1091 52.189 53.6398 59.8026 56.0486 68.0096V88.6623H63.0802C63.3365 85.5707 63.0802 68.0096 63.0802 68.0096C60.2971 58.5276 50.6767 49.8377 44.6238 42.2855Z" fill="#096E9F"/>
<path d="M32.9563 42.7193C59.0184 36.4064 64.7748 25.3622 64.7748 25.3622L53.6501 17.21C55.8202 11.1075 53.6501 1.31489 53.6501 1.31489C47.1397 3.97738 42.7992 10.6865 42.7992 10.6865C37.574 8.53521 28.5153 8.53521 23.2902 10.6865C23.2902 10.6865 18.9496 3.9772 12.4393 1.31489C12.4393 1.31489 10.2692 11.1075 12.4393 17.21L1.31458 25.3622C7.96552 36.7995 18.5021 38.987 32.9563 42.7193Z" fill="#048CCF"/>
<path d="M53.6501 17.21C55.8202 11.1075 53.6501 1.31489 53.6501 1.31489C51.1752 2.32708 49.0151 3.92394 47.2865 5.51482C44.5327 8.28489 43.0936 9.93836 42.7992 10.6867C42.7992 10.6867 40.4568 9.49906 34.9207 9.12323C48.6016 14.3478 58.3385 25.9505 58.3385 25.9505L32.9563 45.2426C59.0185 38.9297 64.7748 25.3624 64.7748 25.3624L53.6501 17.21Z" fill="#096E9F"/>
<path d="M1.31458 25.3622C20.5368 25.3622 30.684 39.6931 30.684 39.6931H35.4053C35.4053 39.6931 46.2314 25.3622 64.7748 25.3622C64.7748 25.3622 58.8732 40.086 32.9563 46.1278C32.9563 46.1278 10.1625 42.1782 1.31458 25.3622Z" fill="#5EABD1"/>
<path d="M33.0447 45.9499L36.2639 42.5187C37.0414 41.172 36.0695 39.4887 34.5144 39.4887H31.5751C30.0201 39.4887 29.0481 41.172 29.8256 42.5187L33.0447 45.9499Z" fill="#096E9F"/>
<path d="M12.358 17.303C12.358 17.303 15.0579 15.3568 18.0029 13.6007C18.0029 13.6007 16.1589 9.05959 11.8547 4.83083C11.8547 4.83065 10.6127 12.0401 12.358 17.303Z" fill="#5EABD1"/>
<path d="M53.7583 17.303C53.7583 17.303 51.0584 15.3568 48.1134 13.6007C48.1134 13.6007 49.9263 9.02724 54.2305 4.79848C54.2305 4.79848 55.4872 11.5127 53.7583 17.303Z" fill="#5EABD1"/>
<path d="M60.3514 69.7267C56.7186 71.6797 52.4207 72.9507 48.4637 73.9586C33.2753 77.8276 33.2753 88.6624 33.2753 88.6624H65.9047C78.4839 88.6624 88.6812 78.3908 88.6812 65.8117C88.6812 53.2327 78.4838 43.0354 65.9047 43.0354C60.2528 43.0354 55.0616 44.9791 50.4347 49.0199C50.4347 49.0199 60.4966 60.0088 63.0802 68.0096C63.0802 68.0096 62.855 68.3807 60.3514 69.7267Z" fill="#048CCF"/>
<path d="M65.9048 43.0352C64.7031 43.0352 63.5224 43.124 62.3634 43.3012C73.2858 44.9808 81.6498 54.4193 81.6498 65.8116C81.6498 78.3906 71.4523 88.6623 58.8733 88.6623H65.9048C78.484 88.6623 88.6813 78.3906 88.6813 65.8116C88.6813 53.2325 78.4839 43.0352 65.9048 43.0352Z" fill="#096E9F"/>
<path d="M49.2906 81.463L51.3533 77.3295L47.2314 74.2986C33.277 78.4235 33.2753 88.6624 33.2753 88.6624H49.8458L52.8273 84.5251L49.2906 81.463Z" fill="#5EABD1"/>
<path d="M63.0802 68.0096C63.0802 68.0096 69.8301 64.0862 68.7963 55.895C68.7963 55.895 67.7298 61.0637 60.9783 63.7005C60.9783 63.7005 61.3219 64.339 61.7567 65.1968C62.1914 66.0547 62.7166 67.1317 63.0802 68.0096Z" fill="#096E9F"/>
<path d="M26.2055 24.7311C24.5089 24.7311 24.5061 27.3678 26.2055 27.3678C27.9022 27.3678 27.905 24.7311 26.2055 24.7311Z" fill="#060606"/>
<path d="M39.8836 27.3678C41.5803 27.3678 41.5831 24.7311 39.8836 24.7311C38.187 24.7311 38.1842 27.3678 39.8836 27.3678Z" fill="#060606"/>
</svg>
