<svg width="90" height="90" viewBox="0 0 90 90" fill="none" xmlns="http://www.w3.org/2000/svg">
<path d="M17.6657 37.015C8.63719 37.015 1.31836 44.334 1.31836 53.3623V69.8472C1.31836 70.4023 1.76836 70.8523 2.32348 70.8523H2.80617C6.16605 70.8523 8.88961 68.1286 8.88961 64.7689V51.6589C8.88961 46.9498 12.6179 43.0949 17.2779 42.8912L24.8491 37.015H17.6657Z" fill="#096E9F"/>
<path d="M69.113 2.73727H63.5281C62.5532 2.73727 61.6444 3.22963 61.112 4.04631L32.9755 47.2024H58.4012L69.1132 17.2712L69.113 2.73727Z" fill="#096E9F"/>
<path d="M67.7914 84.7719C68.4028 85.8962 67.5909 87.2629 66.3112 87.2629H60.0535C59.374 87.2629 58.8252 86.7139 58.8252 86.0345V74.4601L58.1361 70.3223C47.7863 74.4998 35.235 62.8079 35.235 62.8079H30.4708C30.1888 70.5363 23.4485 74.4335 21.0352 75.5844C20.5166 75.8324 20.1853 76.3548 20.1853 76.9321V81.3897L21.6522 84.9331C22.1103 86.0423 21.2945 87.2631 20.0944 87.2631H13.0155C12.336 87.2631 11.7872 86.7141 11.7872 86.0347V72.4236C11.7872 71.7195 12.0635 71.0418 12.5557 70.5364L14.2857 68.7704C14.7779 68.265 15.0542 67.5874 15.0542 66.8832V62.9689C9.52732 55.941 9.79416 46.8858 13.504 41.4533C17.9218 34.9836 27.0111 35.0121 33.8082 41.4533H45.9714L64.8255 12.5367L72.0144 45.9485L66.2811 56.9572V81.9953L67.7914 84.7719Z" fill="#048CCF"/>
<path d="M66.2811 81.9951V56.957L72.0144 45.9483L64.8255 12.5367L62.017 16.8441L68.2791 45.9485L62.5458 56.9572V81.9953L64.0563 84.7721C64.6676 85.8964 63.8557 87.2631 62.576 87.2631H66.3114C67.5909 87.2631 68.403 85.8966 67.7916 84.7721L66.2811 81.9951Z" fill="#5EABD1"/>
<path d="M58.1363 70.3221C47.7864 74.4996 35.2351 62.8077 35.2351 62.8077H30.4709C30.5316 61.1799 30.3062 59.3817 29.6912 57.4036H33.4334C34.1495 57.4036 34.8417 57.6559 35.3886 58.1182C38.2686 60.5519 48.28 68.2681 57.4925 66.4493L58.1363 70.3221Z" fill="#5EABD1"/>
<path d="M21.0363 75.584C23.9507 74.1937 33.1681 68.802 29.7213 57.5C29.4607 56.6458 28.6769 56.0579 27.784 56.0579C26.486 56.0579 25.5218 57.2655 25.815 58.5299C28.0327 68.0889 19.6555 72.1666 16.8534 73.5033C16.3346 73.7508 16.0056 74.2741 16.0056 74.8487V81.3894L17.4721 84.9333C17.9313 86.0428 17.1158 87.2627 15.915 87.2627H20.0949C21.2957 87.2627 22.1112 86.0428 21.652 84.9333L20.1855 81.3894V76.9308C20.1855 76.355 20.5163 75.832 21.0363 75.584Z" fill="#5EABD1"/>
<path d="M88.2271 5.13914C89.4321 9.50607 88.4467 14.2889 82.7782 16.9277L78.8921 14.6211C78.0309 8.82211 82.7964 5.98553 87.534 4.74082C87.8349 4.66172 88.1443 4.83908 88.2271 5.13914Z" fill="#048CCF"/>
<path d="M55.8009 5.13914C54.5959 9.50607 55.5814 14.2889 61.2498 16.9277L65.136 14.6211C65.9971 8.82211 61.2317 5.98553 56.494 4.74082C56.1929 4.66172 55.8835 4.83908 55.8009 5.13914Z" fill="#048CCF"/>
<path d="M86.9774 22.2652C86.2924 20.002 83.8937 15.0727 82.3305 11.961C81.4837 10.2756 79.7599 9.21182 77.8737 9.21182H66.154C64.2679 9.21182 62.544 10.2756 61.6973 11.961C60.1341 15.0727 57.7354 20.002 57.0503 22.2652C56.497 24.0935 56.1248 28.235 57.0503 29.9062C57.6011 30.9006 59.9062 32.165 61.5062 32.9513C62.4834 33.4315 63.0993 34.4283 63.0993 35.5171V42.4874C63.0993 46.968 66.7317 50.6004 71.2123 50.6004H72.8154C77.2961 50.6004 80.9285 46.968 80.9285 42.4874V35.5171C80.9285 34.4283 81.5446 33.4315 82.5216 32.9513C84.1215 32.1648 86.4267 30.9006 86.9774 29.9062C87.9029 28.235 87.5308 24.0935 86.9774 22.2652Z" fill="#73B2D0"/>
<path d="M80.9285 39.4706C78.8101 36.9023 75.6033 35.2651 72.0141 35.2651C68.4248 35.2651 65.218 36.9023 63.0997 39.4706V42.4876C63.0997 46.9682 66.732 50.6006 71.2127 50.6006H72.8158C77.2965 50.6006 80.9288 46.9682 80.9288 42.4876V39.4706H80.9285Z" fill="#73B2D0"/>
<path d="M74.4161 13.33H73.3535C70.9128 13.33 68.8985 11.4209 68.7679 8.98348L68.4695 3.41613C68.4496 3.04717 68.7435 2.73709 69.113 2.73709H69.9694C73.0264 2.73709 75.4575 5.30209 75.2938 8.35453L75.0598 12.7199C75.0414 13.0621 74.7587 13.33 74.4161 13.33Z" fill="#096E9F"/>
<path d="M65.0832 19.642C64.3551 19.642 63.7648 20.2322 63.7648 20.9603V21.8122C63.7648 22.5402 64.3551 23.1305 65.0832 23.1305C65.8113 23.1305 66.4016 22.5402 66.4016 21.8122V20.9603C66.4016 20.2322 65.8113 19.642 65.0832 19.642Z" fill="black"/>
<path d="M78.9413 19.642C78.2132 19.642 77.6229 20.2322 77.6229 20.9603V21.8122C77.6229 22.5402 78.2132 23.1305 78.9413 23.1305C79.6694 23.1305 80.2596 22.5402 80.2596 21.8122V20.9603C80.2596 20.2322 79.6694 19.642 78.9413 19.642Z" fill="black"/>
<path d="M68.268 40.1514C67.5503 40.038 66.8737 40.5285 66.76 41.2478C66.6549 41.9131 67.0673 42.5408 67.699 42.721C67.711 42.75 67.7189 42.7841 67.7161 42.8038C67.6097 43.5241 68.1074 44.1942 68.8277 44.3006C68.8931 44.3102 68.958 44.315 69.0219 44.315C69.6649 44.315 70.2278 43.8441 70.3245 43.1891C70.5329 41.777 69.572 40.3576 68.268 40.1514Z" fill="black"/>
<path d="M75.7564 40.1514C74.4527 40.3576 73.4918 41.7769 73.7001 43.1889C73.7968 43.8441 74.3597 44.315 75.0027 44.315C75.0667 44.315 75.1315 44.3104 75.1967 44.3006C75.9171 44.1944 76.4149 43.5243 76.3086 42.804C76.3057 42.7843 76.3135 42.75 76.3256 42.721C76.9574 42.5408 77.3696 41.9131 77.2645 41.2478C77.1507 40.5287 76.4759 40.038 75.7564 40.1514Z" fill="black"/>
</svg>
