<svg width="90" height="90" viewBox="0 0 90 90" fill="none" xmlns="http://www.w3.org/2000/svg">
<path fill-rule="evenodd" clip-rule="evenodd" d="M76.9263 47.7246L47.0613 14.346L46.1495 15.2578C45.5167 15.8906 44.4753 15.8906 43.8425 15.2578L42.9308 14.346L13.0708 47.7246L16.3792 70.8739L44.0171 78.7864L73.6179 70.8739L76.9263 47.7246Z" fill="#048CCF"/>
<path fill-rule="evenodd" clip-rule="evenodd" d="M55.9102 38.6861C55.9102 36.7827 54.3656 35.2382 52.4622 35.2382C50.778 35.2382 49.373 36.4489 49.0791 38.0484H40.9178C40.6188 36.4489 39.2138 35.2382 37.5298 35.2382C35.6264 35.2382 34.0869 36.7827 34.0869 38.6861C34.0869 39.2242 34.2115 39.7325 34.4307 40.1908C34.8542 41.0578 34.8542 40.4898 34.4307 41.3568C34.2115 41.8152 34.0869 42.3234 34.0869 42.8614C34.0869 44.7648 35.6266 46.3094 37.5298 46.3094C39.2139 46.3094 40.6189 45.0986 40.9178 43.4992H49.0791C49.373 45.0986 50.7782 46.3094 52.4622 46.3094C54.3656 46.3094 55.9102 44.7648 55.9102 42.8614C55.9102 42.3234 55.7855 41.815 55.5614 41.3568C55.1429 40.4898 55.1429 41.0578 55.5614 40.1908C55.7855 39.7324 55.9102 39.2242 55.9102 38.6861Z" fill="#F9F3F1"/>
<path fill-rule="evenodd" clip-rule="evenodd" d="M33.1003 81.6114L38.2572 76.24L33.1003 70.8738H16.3792L17.9137 81.6114L25.1383 83.1908L33.1003 81.6114Z" fill="#9DC6FB"/>
<path fill-rule="evenodd" clip-rule="evenodd" d="M13.0708 47.7246L43.6383 17.1512L38.1277 11.6404L3.89799 45.8759C2.38329 47.3906 2.38329 49.872 3.89799 51.3867C5.4127 52.9014 7.89403 52.9014 9.40856 51.3867L13.0708 47.7246Z" fill="#096E9F"/>
<path fill-rule="evenodd" clip-rule="evenodd" d="M86.099 45.8759L51.4559 11.2319L45.9453 16.7426L76.9262 47.7246L80.5883 51.3868C82.103 52.9016 84.5792 52.9016 86.0988 51.3868C87.6137 49.872 87.6137 47.3906 86.099 45.8759Z" fill="#096E9F"/>
<path fill-rule="evenodd" clip-rule="evenodd" d="M47.0611 17.8636L52.5717 12.3529L53.4835 11.4411C54.1212 10.8033 54.1212 9.76693 53.4835 9.1292L46.1494 1.79473C45.8555 1.50082 45.4668 1.34139 45.0782 1.32135H44.9138C44.5252 1.34121 44.1416 1.50064 43.8426 1.79473L36.5083 9.1292C35.8755 9.76693 35.8755 10.8033 36.5083 11.4411L37.4201 12.3529L42.9306 17.8636L43.8424 18.7704C44.4752 19.4082 45.5166 19.4082 46.1494 18.7704L47.0611 17.8636Z" fill="#9DC6FB"/>
<path fill-rule="evenodd" clip-rule="evenodd" d="M72.0834 81.6114L73.618 70.8738H56.8919L52.1484 76.0556L56.8919 81.6114L64.1364 85.0992L72.0834 81.6114Z" fill="#9DC6FB"/>
<path fill-rule="evenodd" clip-rule="evenodd" d="M56.8919 63.1656C56.8919 56.6383 51.5258 51.272 44.9987 51.272C38.4667 51.272 33.1006 56.6383 33.1006 63.1656V70.8738V81.6114L44.944 83.5397L56.8921 81.6114V70.8738V63.1656H56.8919Z" fill="#096E9F"/>
<path fill-rule="evenodd" clip-rule="evenodd" d="M76.9263 85.144C76.9263 83.2008 75.332 81.6114 73.3887 81.6114H72.0834H56.8918H33.1004H25.0338H17.9137H16.6033C14.6602 81.6114 13.0708 83.2008 13.0708 85.144C13.0708 87.0922 14.6602 88.6816 16.6033 88.6816H73.3887C75.332 88.6816 76.9263 87.0922 76.9263 85.144Z" fill="#096E9F"/>
</svg>
