<svg width="90" height="90" viewBox="0 0 90 90" fill="none" xmlns="http://www.w3.org/2000/svg">
<path d="M78.75 52.0312H71.7188L64.6875 43.5938V33.75L59.0625 36.5625V46.4062L68.9062 57.6562H70.3125V63.2812L72.1911 62.0288C72.9109 61.5489 73.5011 60.8987 73.9093 60.1359C74.3176 59.3731 74.5312 58.5214 74.5312 57.6562V63.2812L76.4098 62.0288C77.1296 61.5489 77.7198 60.8987 78.1281 60.1359C78.5363 59.3731 78.7499 58.5214 78.75 57.6562V63.2812L80.6286 62.0288C81.3484 61.5489 81.9386 60.8987 82.3468 60.1359C82.7551 59.3731 82.9687 58.5214 82.9688 57.6562V56.25C82.9688 55.1311 82.5243 54.0581 81.7331 53.2669C80.9419 52.4757 79.8689 52.0312 78.75 52.0312Z" fill="#5EABD1"/>
<path d="M4.21875 57.6562H85.7812V70.3125H4.21875V57.6562Z" fill="#005985"/>
<path d="M25.3125 61.875H33.75V64.6875H25.3125V61.875Z" fill="white" fill-opacity="0.33"/>
<path d="M52.0312 61.875H75.9375V64.6875H52.0312V61.875Z" fill="white" fill-opacity="0.33"/>
<path d="M78.75 61.875H85.7812V64.6875H78.75V61.875Z" fill="white" fill-opacity="0.33"/>
<path d="M75.9656 78.3984C76.3274 78.7952 76.5294 79.3118 76.5327 79.8488C76.5359 80.3857 76.3401 80.9048 75.9831 81.3059C75.6093 81.7101 75.0933 81.9537 74.5436 81.9855C73.9939 82.0173 73.4533 81.8348 73.0353 81.4764L69.7236 78.641C64.6945 74.3309 57.2519 72.9668 51.2384 76.0043C48.0251 77.6268 45.4271 80.1193 42.5671 82.2445C35.8453 87.2367 26.6554 86.4949 19.8597 82.0564C11.0759 76.3154 9.84722 67.224 9.84546 57.4594C9.84546 50.6707 12.7054 43.7432 17.4023 38.127C25.3845 28.5803 37.2568 22.3154 49.3874 19.5328C52.9673 18.6979 56.2031 16.7805 58.6546 14.0414L66.6615 5.14863C66.9253 4.85596 67.2477 4.62197 67.6078 4.46178C67.9678 4.3016 68.3574 4.2188 68.7515 4.21875H82.9687L83.2429 4.76719L84.5701 7.41973L85.7812 9.84023L70.3124 30.9234L39.3749 57.6562L21.0937 57.6281C21.0638 62.3232 20.9039 67.6687 23.9062 71.6836C26.3865 75.0023 30.1166 76.5422 34.207 75.324C38.4398 74.0619 42.0099 71.042 46.0705 69.3316C49.8867 67.725 53.949 66.9762 58.0816 67.4719C63.97 68.1933 69.3956 71.0301 73.3482 75.4541L75.9656 78.3984Z" fill="#048CCF"/>
<path d="M46.4062 30.9375C38.9218 35.331 34.1165 40.0605 28.125 46.4062C25.3499 49.3451 22.6091 54.6428 22.0127 57.6295L39.375 57.6562L70.3125 30.9234L85.7812 9.84023L84.5701 7.41972L83.9784 6.23707C73.5962 17.8719 59.8329 23.0556 46.4062 30.9375Z" fill="#5EABD1"/>
<path d="M71.0156 14.0625C72.9573 14.0625 74.5312 12.4885 74.5312 10.5469C74.5312 8.60525 72.9573 7.03125 71.0156 7.03125C69.074 7.03125 67.5 8.60525 67.5 10.5469C67.5 12.4885 69.074 14.0625 71.0156 14.0625Z" fill="#333333"/>
<path d="M22.5 45L32.7892 39.8554C33.421 39.5395 34.1178 39.375 34.8242 39.375C35.4218 39.375 36.0136 39.4927 36.5657 39.7214C37.1178 39.9501 37.6195 40.2853 38.0421 40.7079C38.4647 41.1305 38.7999 41.6322 39.0286 42.1843C39.2573 42.7364 39.375 43.3282 39.375 43.9258V52.0312H46.4062C47.5251 52.0312 48.5982 52.4757 49.3894 53.2669C50.1805 54.0581 50.625 55.1311 50.625 56.25V57.6562C50.6249 58.5214 50.4113 59.3731 50.0031 60.1359C49.5948 60.8987 49.0046 61.5489 48.2848 62.0288L46.4062 63.2812V57.6562C46.4062 58.5214 46.1926 59.3731 45.7843 60.1359C45.3761 60.8987 44.7859 61.5489 44.0661 62.0288L42.1875 63.2812V57.6562C42.1874 58.5214 41.9738 59.3731 41.5656 60.1359C41.1573 60.8987 40.5671 61.5489 39.8473 62.0288L37.9688 63.2812V57.6562C36.8499 57.6562 35.7768 57.2118 34.9856 56.4206C34.1945 55.6294 33.75 54.5564 33.75 53.4375V46.4062L25.3125 50.625" fill="#096E9F"/>
<path d="M73.125 52.0312H64.6875L59.0625 45V33.75L53.4375 36.5625V47.8125L60.0446 55.5209C60.6187 56.1906 61.3309 56.7282 62.1323 57.0968C62.9337 57.4654 63.8054 57.6562 64.6875 57.6562V63.2812L66.5661 62.0288C67.2859 61.5489 67.8761 60.8987 68.2843 60.1359C68.6926 59.3731 68.9062 58.5214 68.9062 57.6562V63.2812L70.7848 62.0288C71.5046 61.5489 72.0948 60.8987 72.5031 60.1359C72.9113 59.3731 73.1249 58.5214 73.125 57.6562V63.2812L75.0036 62.0288C75.7234 61.5489 76.3136 60.8987 76.7218 60.1359C77.1301 59.3731 77.3437 58.5214 77.3438 57.6562V56.25C77.3438 55.1311 76.8993 54.0581 76.1081 53.2669C75.3169 52.4757 74.2439 52.0312 73.125 52.0312Z" fill="#096E9F"/>
</svg>
