<svg width="91" height="90" viewBox="0 0 91 90" fill="none" xmlns="http://www.w3.org/2000/svg">
<path d="M54.0105 61.3773L61.8631 53.5246L79.6368 71.2983L71.7842 79.151L54.0105 61.3773Z" fill="#B0D5E7"/>
<path d="M87.1582 77.4394L77.9394 86.6582C77.5947 87.0029 77.0359 87.0029 76.6912 86.6582L74.4746 86.2068L71.1697 82.902C69.4464 81.1786 69.4464 78.3846 71.1697 76.6612L77.161 70.6699C78.8844 68.9465 81.6784 68.9465 83.4018 70.6699L86.7067 73.9748L87.1581 76.1914C87.503 76.5359 87.503 77.0947 87.1582 77.4394Z" fill="#5EABD1"/>
<path d="M88.9235 76.1912L86.7069 73.9746C86.6703 74.0317 86.6281 74.0862 86.578 74.1362L74.6362 86.078C74.5862 86.1279 74.5317 86.1701 74.4746 86.2069L76.6912 88.4235C77.0359 88.7682 77.5947 88.7682 77.9394 88.4235L88.9235 77.4394C89.268 77.0947 89.268 76.5359 88.9235 76.1912Z" fill="#048CCF"/>
<path d="M77.8878 40.2354C77.8878 61.7289 62.229 79.1528 40.7356 79.1528C19.2421 79.1528 1.81799 61.7289 1.81799 40.2354C1.81799 18.7419 19.2419 1.31801 40.7354 1.31801C62.2289 1.31801 77.8878 18.7419 77.8878 40.2354Z" fill="#048CCF"/>
<path d="M68.2541 12.7166C59.9813 4.44378 48.9105 0.675708 38.0875 1.40925C47.1474 2.02326 56.0334 5.79151 62.9585 12.7168C78.1567 27.915 78.1567 52.5562 62.9585 67.7544C56.0332 74.6797 47.1472 78.4477 38.0875 79.0619C48.9103 79.7955 59.9813 76.0274 68.2541 67.7544C83.4523 52.556 83.4523 27.9148 68.2541 12.7166Z" fill="#096E9F"/>
<path d="M68.0667 40.2354C68.0667 56.3049 56.805 69.3318 40.7353 69.3318C24.6656 69.3318 11.6389 56.3049 11.6389 40.2354C11.6389 24.1659 24.6658 11.139 40.7353 11.139C56.8049 11.139 68.0667 24.1659 68.0667 40.2354Z" fill="#C1DDEB"/>
<path d="M48.8921 43.6006C48.3313 43.3867 47.8759 42.9648 47.609 42.4272C46.3086 39.8079 43.9592 38.007 40.8365 38.007C39.9503 38.007 39.0983 37.8005 38.3026 38.068C36.2937 38.7434 34.6438 40.1996 33.7123 42.0757C33.4455 42.6132 32.9902 43.0351 32.4293 43.249C29.3784 44.4125 27.2281 47.3996 27.313 50.8785C27.4135 54.9922 30.7087 58.395 34.8177 58.6186C36.3341 58.701 37.7638 58.3581 38.9992 57.6984C40.1439 57.0872 41.529 57.0872 42.6737 57.6984C43.5129 58.1464 44.4418 58.4484 45.4267 58.5702C45.8914 58.6277 46.3687 58.4692 46.8547 58.4428C50.9637 58.2194 53.9075 54.9925 54.0082 50.8789C54.0935 47.4 51.9429 44.7641 48.8921 43.6006Z" fill="#048CCF"/>
<path d="M26.2542 40.2977C24.5481 40.7549 22.7945 39.7424 22.3373 38.0363L21.3163 34.2263C20.8591 32.5201 21.8716 30.7665 23.5778 30.3093C25.2839 29.8521 27.0375 30.8646 27.4947 32.5707L28.5156 36.3808C28.9728 38.0869 27.9603 39.8405 26.2542 40.2977Z" fill="#048CCF"/>
<path d="M55.4186 40.2977C57.1247 40.7549 58.8783 39.7424 59.3355 38.0363L60.3565 34.2263C60.8137 32.5201 59.8012 30.7665 58.095 30.3093C56.3889 29.8521 54.6353 30.8646 54.1781 32.5707L53.1572 36.3808C52.6999 38.0869 53.7124 39.8405 55.4186 40.2977Z" fill="#096E9F"/>
<path d="M34.6056 32.383C32.8394 32.383 31.4075 30.9512 31.4075 29.1848V25.2403C31.4075 23.474 32.8394 22.0421 34.6056 22.0421C36.3721 22.0421 37.8038 23.474 37.8038 25.2403V29.1848C37.8038 30.951 36.3719 32.383 34.6056 32.383Z" fill="#048CCF"/>
<path d="M47.0672 32.383C45.3009 32.383 43.869 30.9512 43.869 29.1848V25.2403C43.869 23.474 45.3009 22.0421 47.0672 22.0421C48.8334 22.0421 50.2653 23.474 50.2653 25.2403V29.1848C50.2653 30.951 48.8334 32.383 47.0672 32.383Z" fill="#096E9F"/>
<path d="M49.2436 43.249C48.6829 43.0352 48.2274 42.6132 47.9606 42.0756C46.6601 39.4563 43.9593 37.6554 40.8365 37.6554C39.9504 37.6554 39.0986 37.8008 38.3026 38.0684C41.0026 38.4011 43.283 40.0869 44.4449 42.4272C44.7118 42.9647 45.1672 43.3866 45.728 43.6005C48.779 44.764 50.9293 47.7514 50.8443 51.2303C50.7613 54.6169 48.5122 57.52 45.4274 58.5655C45.8923 58.623 46.3685 58.645 46.8549 58.6184C50.9638 58.395 54.2592 54.9924 54.3599 50.8788C54.445 47.3999 52.2945 44.4125 49.2436 43.249Z" fill="#096E9F"/>
</svg>
