<svg width="101" height="100" viewBox="0 0 101 100" fill="none" xmlns="http://www.w3.org/2000/svg">
<path d="M12.3418 83.8902C12.3418 86.587 13.3184 89.5545 13.3184 89.5545L68.5336 88.7732C69.4686 87.3764 70.0147 85.6973 70.0147 83.8902H12.3418Z" fill="#048CCF"/>
<path d="M10.3884 34.1995L70.0145 32.2462C70.0145 28.0359 67.838 25.7597 66.1057 24.136C65.0346 23.132 63.4228 21.7958 62.3478 20.2295H16.1017C15.4566 21.1696 14.6185 22.0269 13.8192 22.7791C12.344 24.136 10.3884 27.8875 10.3884 30.2928V34.1995Z" fill="#52B0DE"/>
<path d="M61.2251 17.0905C61.2251 14.1607 17.2247 14.1607 17.2247 17.0905C17.2247 18.2088 16.7653 19.2629 16.1018 20.2297H62.3478C61.6843 19.2629 61.2251 18.2088 61.2251 17.0905Z" fill="#52B0DE"/>
<path d="M12.3417 28.3398C12.3417 25.9345 13.0523 24.1609 13.8193 22.7793C13.2871 23.2802 12.7722 23.7348 12.3441 24.1361C10.6118 25.7598 8.4353 28.0359 8.4353 32.2464H12.3417V28.3398Z" fill="#52B0DE"/>
<path d="M12.3417 83.8902H8.4353C8.4353 88.7445 12.3704 92.6796 17.2247 92.6796H61.2252C64.2724 92.6796 66.9566 91.1283 68.5335 88.7732H17.2247C14.5279 88.7732 12.3417 86.587 12.3417 83.8902Z" fill="#52B0DE"/>
<path d="M63.0304 83.8902H70.0147V32.2462H12.3418V55.5642L21.965 74.3437L63.0304 83.8902Z" fill="#048CCF"/>
<path d="M8.4353 32.2462V54.3024L12.3417 55.5642V32.2462H8.4353Z" fill="#52B0DE"/>
<path d="M61.2251 1.4649H18.2013L16.248 15.1373L64.1549 13.1841V4.39471C64.1549 2.77668 62.8431 1.4649 61.2251 1.4649Z" fill="#52B0DE"/>
<path d="M18.2013 10.2543V1.4649H17.2247C15.6067 1.4649 14.2949 2.77668 14.2949 4.39471V14.1607C14.2949 15.7788 15.6067 17.0905 17.2247 17.0905H61.2252C62.8432 17.0905 64.155 15.7788 64.155 14.1607V13.1841H21.1311C19.5131 13.1841 18.2013 11.8724 18.2013 10.2543Z" fill="#048CCF"/>
<path d="M39.2247 69.3583C42.4735 66.1096 45.7822 62.6061 45.7822 58.6764C45.7822 56.0254 43.7237 54.2864 41.3922 54.2864C37.4625 54.2864 33.9591 57.5951 30.7103 60.8439C30.7103 56.2496 30.5726 51.4326 27.794 48.654C26.1455 47.0054 23.4602 46.7793 21.5857 48.654C18.8071 51.4326 18.6694 56.2496 18.6694 60.8439C16.6701 58.8446 14.5739 56.8238 12.3418 55.5642V83.8902H63.0304C59.3027 80.1625 53.921 74.7808 51.4149 72.2747C48.6363 69.496 43.8193 69.3583 39.2247 69.3583Z" fill="#096E9F"/>
<path d="M8.4353 83.8902H12.3417V55.5642C11.0852 54.8552 9.78536 54.3882 8.4353 54.3022V83.8902Z" fill="#52B0DE"/>
<path d="M75.5341 86.0356C74.5991 85.1006 71.6264 82.1278 68.6538 79.1552L60.2485 83.654C60.2485 83.654 68.1471 93.5056 69.0821 94.4408C71.2513 96.61 74.4419 95.1793 77.1051 94.0586C78.2258 91.3954 77.7032 88.2046 75.5341 86.0356Z" fill="#048CCF"/>
<path d="M69.0822 92.4874C68.1472 91.5524 64.4209 87.8261 60.875 84.2802L58.2954 89.5136C61.268 92.4862 64.2408 95.4588 65.1758 96.394C68.0362 99.2545 72.6737 99.2545 75.5342 96.394C76.2254 95.7028 76.7479 94.9072 77.1052 94.0585C74.442 95.1793 71.2512 94.6566 69.0822 92.4874Z" fill="#52B0DE"/>
<path d="M53.3682 78.7267C54.3032 79.6617 62.2018 85.607 62.2018 85.607L68.6538 79.155C65.6812 76.1824 62.7085 73.2096 61.7735 72.2746C59.6042 70.1054 56.4137 69.5829 53.7505 70.7037C51.8584 72.5958 51.199 76.5576 53.3682 78.7267Z" fill="#096E9F"/>
<path d="M55.3213 78.7267C53.1521 76.5574 52.6296 73.3669 53.7503 70.7037C52.9017 71.0607 52.1061 71.5834 51.4149 72.2747C48.5544 75.1351 48.5544 79.7726 51.4149 82.6331L58.2952 89.5134L62.2016 85.607C59.2289 82.6344 56.2563 79.6619 55.3213 78.7267Z" fill="#52B0DE"/>
<path d="M70.2067 53.921C67.3462 56.7814 63.7521 61.7312 68.2535 66.2326C72.7549 70.734 77.7047 67.1399 80.5651 64.2794L83.5391 61.3055L73.1807 50.947C71.8097 52.3182 70.7114 53.4165 70.2067 53.921Z" fill="#52B0DE"/>
<path d="M70.2065 64.2794C67.3461 61.4189 67.3461 56.7814 70.2065 53.921C68.4098 55.7177 66.9148 57.2127 66.3001 57.8274C63.4397 60.6878 63.4397 65.3253 66.3001 68.1858C69.1606 71.0463 73.7981 71.0463 76.6586 68.1858C77.2732 67.5711 78.7682 66.0761 80.565 64.2794C77.7047 67.1399 73.067 67.1399 70.2065 64.2794Z" fill="#096E9F"/>
<path d="M90.4195 44.0667C87.559 41.2062 82.9215 41.2062 80.061 44.0667C77.8658 46.2619 75.221 48.9067 73.1807 50.947L83.5391 61.3054C85.5796 59.2649 88.2244 56.6201 90.4195 54.4251C93.2799 51.5646 93.2799 46.9271 90.4195 44.0667Z" fill="#048CCF"/>
</svg>
