<svg width="91" height="90" viewBox="0 0 91 90" fill="none" xmlns="http://www.w3.org/2000/svg">
<g clip-path="url(#clip0_140_2111)">
<path d="M77.5029 71.9211C76.3427 80.7787 68.0757 86.6533 59.4341 86.1699H59.4324C58.1738 86.0996 56.9082 85.8922 55.6548 85.5424C52.7193 84.7232 49.2441 84.2469 45.5211 84.2469C41.8578 84.2469 38.4388 84.7057 35.5367 85.5002C25.025 88.3812 13.5638 81.2041 13.5638 69.6746C13.5638 64.9408 15.6222 60.6887 18.8953 57.7601C18.8953 57.7601 25.7437 51.8047 30.7799 40.2558C32.6818 35.6803 36.6527 32.1787 41.5254 30.9148C42.8121 30.5808 44.1621 30.4033 45.5525 30.4033C52.2129 30.4033 57.9205 34.4691 60.3271 40.2541C64.356 49.4967 69.5451 55.1533 71.4576 57.0482C75.8242 60.439 78.2851 65.8953 77.5029 71.9211Z" fill="#048CCF"/>
<path d="M71.4576 57.0482C69.5451 55.1533 64.356 49.4967 60.3271 40.2541C57.9207 34.4691 52.2131 30.4033 45.5525 30.4033C44.1621 30.4033 42.8121 30.5808 41.5254 30.9148C49.7994 30.4033 54.3293 37.7351 56.1066 42.0084C60.4203 51.9014 66.4514 58.4773 68.6539 60.6588C71.8988 63.176 73.5107 67.1662 72.9711 71.3287C72.5387 74.6246 70.8863 81.4853 59.4342 86.1699C68.0756 86.6533 76.3426 80.7787 77.5029 71.9211C78.2851 65.8953 75.824 60.439 71.4576 57.0482Z" fill="#096E9F"/>
<path d="M88.7371 43.7099C85.972 49.0572 80.8058 52.0191 76.566 50.9644C76.0544 50.8379 75.557 50.6533 75.0771 50.4054C70.6333 48.1097 69.5417 41.3914 72.639 35.4008C74.8327 31.1592 78.5365 28.4187 82.089 27.9916C83.5568 27.8158 84.9999 28.0338 86.299 28.7053C90.7445 31.001 91.8343 37.7193 88.7371 43.7099Z" fill="#048CCF"/>
<path d="M88.737 43.7099C85.972 49.0572 80.8058 52.0191 76.5659 50.9644C79.2501 49.5881 81.7409 47.1166 83.4302 43.8506C86.5468 37.8248 85.8735 31.1398 82.089 27.9916C83.5567 27.8158 84.9999 28.0338 86.2989 28.7053C90.7444 31.001 91.8343 37.7193 88.737 43.7099Z" fill="#096E9F"/>
<path d="M2.26289 43.7099C5.02793 49.0572 10.1941 52.0191 14.434 50.9644C14.9455 50.8379 15.443 50.6533 15.9228 50.4054C20.3666 48.1097 21.4582 41.3914 18.3609 35.4008C16.1672 31.1592 12.4635 28.4187 8.91093 27.9916C7.44316 27.8158 6 28.0338 4.70097 28.7053C0.255467 31.001 -0.834376 37.7193 2.26289 43.7099Z" fill="#048CCF"/>
<path d="M2.26289 43.7099C5.02793 49.0572 10.1941 52.0191 14.434 50.9644C11.7498 49.5881 9.25898 47.1166 7.56972 43.8506C4.45312 37.8248 5.12636 31.1398 8.91093 27.9916C7.44316 27.8158 6 28.0338 4.70097 28.7053C0.255467 31.001 -0.834376 37.7193 2.26289 43.7099Z" fill="#096E9F"/>
<path d="M68.1705 16.8224C67.4463 22.9467 63.4701 27.9336 59.3076 27.9336C58.3619 27.9336 57.4935 27.6857 56.7113 27.2551C55.4615 26.5748 54.4332 25.4304 53.6738 24.1051C52.243 21.6054 51.6488 18.2568 52.0461 14.9099C52.6121 10.1269 55.1627 6.03826 58.2353 4.47908C59.0967 4.04138 60.0002 3.80232 60.9107 3.80232C63.3893 3.80232 65.3211 5.4951 66.5428 7.62908C67.9736 10.1269 68.566 13.4791 68.1705 16.8224Z" fill="#048CCF"/>
<path d="M68.1705 16.8224C67.4463 22.9467 63.4701 27.9336 59.3076 27.9336C58.3619 27.9336 57.4935 27.6857 56.7113 27.2551C59.784 25.6924 62.331 21.6037 62.897 16.8224C63.2926 13.4791 62.7002 10.1269 61.2693 7.62908C60.5152 6.31248 59.4922 5.16463 58.2353 4.47908C59.0967 4.04138 60.0002 3.80232 60.9107 3.80232C63.3892 3.80232 65.3211 5.4951 66.5427 7.62908C67.9736 10.1269 68.566 13.4791 68.1705 16.8224Z" fill="#096E9F"/>
<path d="M22.8286 16.8224C23.5528 22.9467 27.529 27.9336 31.6915 27.9336C32.6372 27.9336 33.5056 27.6857 34.2878 27.2551C35.5376 26.5748 36.5659 25.4304 37.3253 24.1051C38.7561 21.6054 39.3503 18.2568 38.953 14.9099C38.387 10.1269 35.8364 6.03826 32.7638 4.47908C31.9024 4.04138 30.9989 3.80232 30.0884 3.80232C27.6099 3.80232 25.678 5.4951 24.4563 7.62908C23.0255 10.1269 22.4331 13.4791 22.8286 16.8224Z" fill="#048CCF"/>
<path d="M22.8286 16.8224C23.5528 22.9467 27.529 27.9336 31.6915 27.9336C32.6372 27.9336 33.5056 27.6857 34.2878 27.2551C31.2151 25.6924 28.6681 21.6037 28.102 16.8224C27.7065 13.4791 28.2989 10.1269 29.7298 7.62908C30.4839 6.31248 31.5069 5.16463 32.7638 4.47908C31.9024 4.04138 30.9989 3.80232 30.0884 3.80232C27.6099 3.80232 25.678 5.4951 24.4563 7.62908C23.0255 10.1269 22.4331 13.4791 22.8286 16.8224Z" fill="#096E9F"/>
<path d="M58.7572 56.4253H50.0216V47.6947C50.0216 47.452 49.8249 47.2553 49.5821 47.2553H41.6219C41.3791 47.2553 41.1824 47.452 41.1824 47.6947V56.4253H32.4468C32.204 56.4253 32.0073 56.622 32.0073 56.8647V64.8206C32.0073 65.0633 32.204 65.26 32.4468 65.26H41.1824V73.9906C41.1824 74.2333 41.3791 74.43 41.6219 74.43H49.5821C49.8249 74.43 50.0216 74.2333 50.0216 73.9906V65.26H58.7572C58.9999 65.26 59.1966 65.0633 59.1966 64.8206V56.8647C59.1966 56.622 58.9999 56.4253 58.7572 56.4253Z" fill="#B0D5E7"/>
</g>
<defs>
<clipPath id="clip0_140_2111">
<rect width="90" height="90" fill="white" transform="translate(0.5)"/>
</clipPath>
</defs>
</svg>
